<?xml version="1.0" encoding="UTF-8"?>
<!DOCTYPE svg PUBLIC "-//W3C//DTD SVG 1.1//EN" "http://www.w3.org/Graphics/SVG/1.1/DTD/svg11.dtd">
<svg xmlns="http://www.w3.org/2000/svg" version="1.1" width="512px" height="512px" style="shape-rendering:geometricPrecision; text-rendering:geometricPrecision; image-rendering:optimizeQuality; fill-rule:evenodd; clip-rule:evenodd" xmlns:xlink="http://www.w3.org/1999/xlink">
<g><path style="opacity:1" fill="#fefffe" d="M 357.5,-0.5 C 363.5,-0.5 369.5,-0.5 375.5,-0.5C 405.548,15.6685 435.548,32.1685 465.5,49C 488.471,60.5739 495.305,78.4072 486,102.5C 482.833,108.333 478.333,112.833 472.5,116C 466.5,118.667 460.5,121.333 454.5,124C 386.028,193.473 317.194,262.639 248,331.5C 247.333,332.167 247.333,332.833 248,333.5C 261,346.5 274,359.5 287,372.5C 295.194,389.386 302.694,406.553 309.5,424C 309.091,426.321 308.257,428.487 307,430.5C 285.833,451.667 264.667,472.833 243.5,494C 292.833,494.333 342.167,494.667 391.5,495C 399,500.136 399.333,505.636 392.5,511.5C 276.833,511.5 161.167,511.5 45.5,511.5C 41.2514,507.547 40.418,502.88 43,497.5C 43.9025,496.299 45.0692,495.465 46.5,495C 94.8333,494.667 143.167,494.333 191.5,494C 185.046,491.273 178.712,488.273 172.5,485C 129,441.5 85.5,398 42,354.5C 34.2219,337.278 26.7219,319.945 19.5,302.5C 20.0544,300.39 20.8877,298.39 22,296.5C 47.1667,271.333 72.3333,246.167 97.5,221C 99.5126,219.743 101.679,218.909 104,218.5C 121.447,225.306 138.614,232.806 155.5,241C 170.667,256.167 185.833,271.333 201,286.5C 267.5,220 334,153.5 400.5,87C 382.756,80.5298 365.089,73.8631 347.5,67C 330.431,54.4467 325.931,38.28 334,18.5C 339.365,8.95397 347.199,2.62064 357.5,-0.5 Z M 362.5,16.5 C 369.43,16.198 375.763,18.0313 381.5,22C 409.004,37.9198 436.671,53.5865 464.5,69C 472.812,76.0748 474.646,84.5748 470,94.5C 466.848,98.6543 462.848,101.654 458,103.5C 453.022,82.9078 439.856,73.4078 418.5,75C 397.422,67.1963 376.422,59.1963 355.5,51C 344.924,40.6863 344.924,30.353 355.5,20C 357.925,18.7874 360.259,17.6207 362.5,16.5 Z M 424.5,92.5 C 439.384,95.6018 443.551,103.935 437,117.5C 430.333,110.833 423.667,104.167 417,97.5C 416.312,96.6683 416.479,96.0016 417.5,95.5C 419.885,94.3385 422.219,93.3385 424.5,92.5 Z M 402.5,109.5 C 409.812,116.146 416.812,123.146 423.5,130.5C 420.833,133.833 417.833,136.833 414.5,139.5C 407.348,132.848 400.348,126.015 393.5,119C 396.704,115.964 399.704,112.797 402.5,109.5 Z M 379.5,132.5 C 387.244,138.739 394.578,145.572 401.5,153C 398.333,156.167 395.167,159.333 392,162.5C 384.985,155.652 378.152,148.652 371.5,141.5C 374.189,138.48 376.856,135.48 379.5,132.5 Z M 357.5,154.5 C 364.737,161.071 371.737,168.071 378.5,175.5C 375.833,178.833 372.833,181.833 369.5,184.5C 362.348,177.848 355.348,171.015 348.5,164C 351.704,160.964 354.704,157.797 357.5,154.5 Z M 335.5,176.5 C 342.812,183.146 349.812,190.146 356.5,197.5C 353.516,200.985 350.349,204.318 347,207.5C 339.985,200.652 333.152,193.652 326.5,186.5C 329.522,183.147 332.522,179.813 335.5,176.5 Z M 312.5,199.5 C 320.244,205.739 327.578,212.572 334.5,220C 331.318,223.349 327.985,226.516 324.5,229.5C 317.348,222.848 310.348,216.015 303.5,209C 306.704,205.964 309.704,202.797 312.5,199.5 Z M 290.5,221.5 C 297.812,228.146 304.812,235.146 311.5,242.5C 308.516,245.985 305.349,249.318 302,252.5C 294.985,245.652 288.152,238.652 281.5,231.5C 284.522,228.147 287.522,224.813 290.5,221.5 Z M 105.5,238.5 C 115.033,241.931 124.367,245.931 133.5,250.5C 134.521,251.002 134.688,251.668 134,252.5C 106.986,279.68 79.8196,306.68 52.5,333.5C 47.7238,323.963 43.5571,314.296 40,304.5C 62.035,282.632 83.8683,260.632 105.5,238.5 Z M 267.5,244.5 C 275.244,250.739 282.578,257.572 289.5,265C 286.318,268.349 282.985,271.516 279.5,274.5C 272.348,267.848 265.348,261.015 258.5,254C 261.704,250.964 264.704,247.797 267.5,244.5 Z M 149.5,261.5 C 189.096,299.429 228.096,338.096 266.5,377.5C 237.5,407.167 208.167,436.5 178.5,465.5C 139.5,427.167 100.833,388.5 62.5,349.5C 91.5211,320.146 120.521,290.812 149.5,261.5 Z M 245.5,266.5 C 252.812,273.146 259.812,280.146 266.5,287.5C 263.516,290.985 260.349,294.318 257,297.5C 249.985,290.652 243.152,283.652 236.5,276.5C 239.522,273.147 242.522,269.813 245.5,266.5 Z M 222.5,289.5 C 230.244,295.739 237.578,302.572 244.5,310C 241.318,313.349 237.985,316.516 234.5,319.5C 227.348,312.848 220.348,306.015 213.5,299C 216.704,295.964 219.704,292.797 222.5,289.5 Z M 160.5,335.5 C 182.793,334.132 195.459,344.465 198.5,366.5C 194.278,390.571 180.278,400.071 156.5,395C 141.946,388.1 135.446,376.6 137,360.5C 140.607,348.063 148.441,339.73 160.5,335.5 Z M 275.5,393.5 C 278.027,395.51 279.861,398.177 281,401.5C 283.667,407.5 286.333,413.5 289,419.5C 289.667,420.5 289.667,421.5 289,422.5C 267.167,444.333 245.333,466.167 223.5,488C 213.704,484.443 204.037,480.276 194.5,475.5C 221.521,448.146 248.521,420.812 275.5,393.5 Z"/></g>
<g><path style="opacity:1" fill="#fefffe" d="M 69.5,56.5 C 73.9869,56.1606 77.4869,57.8273 80,61.5C 82.8543,74.9169 86.021,88.2503 89.5,101.5C 93.7873,93.0891 98.454,84.9224 103.5,77C 109.46,74.1318 113.96,75.6318 117,81.5C 120.5,111.666 124,141.833 127.5,172C 126.89,180.151 122.557,183.151 114.5,181C 112.19,179.363 110.69,177.196 110,174.5C 107.74,154.491 105.406,134.491 103,114.5C 99.7168,122.24 95.5501,129.407 90.5,136C 85.4863,138.109 81.3196,136.943 78,132.5C 73.3333,111.833 68.6667,91.1667 64,70.5C 62.0151,64.04 63.8484,59.3734 69.5,56.5 Z"/></g>
<g><path style="opacity:1" fill="#fefffe" d="M 162.5,317.5 C 190.091,317.035 207.591,330.035 215,356.5C 218.239,378.508 210.739,395.675 192.5,408C 166.788,420.126 144.954,415.293 127,393.5C 115.148,372.147 116.815,351.814 132,332.5C 140.727,324.386 150.894,319.386 162.5,317.5 Z M 160.5,335.5 C 148.441,339.73 140.607,348.063 137,360.5C 135.446,376.6 141.946,388.1 156.5,395C 180.278,400.071 194.278,390.571 198.5,366.5C 195.459,344.465 182.793,334.132 160.5,335.5 Z"/></g>
</svg>
